# This file uses centimeters as units for non-parametric coordinates.

mtllib ButtonObj.mtl
g default
v -0.500000 -0.062966 5.400010
v -0.400010 -0.062966 5.500000
v -0.500000 0.062966 5.400010
v -0.400010 0.062966 5.500000
v 0.500000 -0.062966 5.400010
v 0.400010 -0.062966 5.500000
v 0.500000 0.062966 5.400010
v 0.400010 0.062966 5.500000
v -0.500000 0.062966 4.599990
v -0.400010 0.062966 4.500000
v -0.500000 -0.062966 4.599990
v -0.400010 -0.062966 4.500000
v 0.400010 0.062966 4.500000
v 0.500000 0.062966 4.599990
v 0.500000 -0.062966 4.599990
v 0.400010 -0.062966 4.500000
v 0.266389 0.054506 4.914655
v 0.227161 0.054506 4.837665
v 0.166061 0.054506 4.776565
v 0.089070 0.054506 4.737336
v 0.003726 0.054506 4.723819
v -0.081619 0.054506 4.737336
v -0.158609 0.054506 4.776565
v -0.219709 0.054506 4.837665
v -0.258938 0.054506 4.914655
v -0.272455 0.054506 5.000000
v -0.258938 0.054506 5.085344
v -0.219709 0.054506 5.162335
v -0.158609 0.054506 5.223435
v -0.081619 0.054506 5.262662
v 0.003726 0.054506 5.276181
v 0.089070 0.054506 5.262662
v 0.166061 0.054506 5.223435
v 0.227161 0.054506 5.162335
v 0.266389 0.054506 5.085344
v 0.279907 0.054506 5.000000
v 0.003726 0.188720 5.000000
v 0.266389 0.161880 4.914655
v 0.240545 0.188720 4.923053
v 0.227161 0.161880 4.837665
v 0.205176 0.188720 4.853638
v 0.166061 0.161880 4.776565
v 0.150088 0.188720 4.798550
v 0.089070 0.161880 4.737336
v 0.080673 0.188720 4.763181
v 0.003726 0.161880 4.723819
v 0.003726 0.188720 4.750993
v -0.081619 0.161880 4.737336
v -0.073221 0.188720 4.763181
v -0.158609 0.161880 4.776565
v -0.142636 0.188720 4.798550
v -0.219709 0.161880 4.837665
v -0.197724 0.188720 4.853638
v -0.258938 0.161880 4.914655
v -0.233093 0.188720 4.923053
v -0.272455 0.161880 5.000000
v -0.245280 0.188720 5.000000
v -0.258938 0.161880 5.085344
v -0.233093 0.188720 5.076947
v -0.219709 0.161880 5.162335
v -0.197724 0.188720 5.146362
v -0.158609 0.161880 5.223435
v -0.142636 0.188720 5.201450
v -0.081619 0.161880 5.262662
v -0.073221 0.188720 5.236819
v 0.003726 0.161880 5.276181
v 0.003726 0.188720 5.249006
v 0.089070 0.161880 5.262662
v 0.080673 0.188720 5.236819
v 0.166061 0.161880 5.223435
v 0.150088 0.188720 5.201450
v 0.227161 0.161880 5.162335
v 0.205176 0.188720 5.146362
v 0.266389 0.161880 5.085344
v 0.240545 0.188720 5.076947
v 0.279907 0.161880 5.000000
v 0.252732 0.188720 5.000000
vt 0.243627 0.402615
vt 0.356520 0.402615
vt 0.243627 0.492932
vt 0.356520 0.628401
vt 0.356520 0.718718
vt 0.345232 0.730006
vt 0.254915 0.730006
vt 0.243627 0.718718
vt 0.254915 0.391327
vt 0.345232 0.278434
vt 0.299550 0.391327
vt 0.299550 0.278434
vt 0.389867 0.278434
vt 0.254915 0.617113
vt 0.345232 0.504220
vt 0.525336 0.391327
vt 0.615653 0.278434
vt 0.615653 0.391327
vt 0.254915 0.278434
vt 0.389867 0.391327
vt 0.525336 0.278434
vt 0.345232 0.391327
vt 0.254915 0.504220
vt 0.243627 0.628401
vt 0.356520 0.492932
vt 0.345232 0.617113
vt 0.826497 0.868352
vt 0.826286 0.894168
vt 0.822416 0.894168
vt 0.822205 0.868352
vt 0.740859 0.894168
vt 0.740648 0.868352
vt 0.744941 0.868352
vt 0.744729 0.894168
vt 0.745152 0.894168
vt 0.749233 0.868352
vt 0.749022 0.894168
vt 0.749444 0.894168
vt 0.753525 0.868352
vt 0.753314 0.894168
vt 0.753737 0.894168
vt 0.757818 0.868352
vt 0.757607 0.894168
vt 0.758029 0.894168
vt 0.762110 0.868352
vt 0.761899 0.894168
vt 0.762321 0.894168
vt 0.766403 0.868352
vt 0.766191 0.894168
vt 0.766614 0.894168
vt 0.770695 0.868352
vt 0.770484 0.894168
vt 0.770906 0.894168
vt 0.774987 0.868352
vt 0.774776 0.894168
vt 0.775199 0.894168
vt 0.779280 0.868352
vt 0.779069 0.894168
vt 0.779491 0.894168
vt 0.783572 0.868351
vt 0.783361 0.894168
vt 0.783784 0.894168
vt 0.787865 0.868352
vt 0.787654 0.894168
vt 0.788076 0.894168
vt 0.792157 0.868352
vt 0.791946 0.894168
vt 0.792368 0.894168
vt 0.796450 0.868352
vt 0.796239 0.894168
vt 0.796661 0.894168
vt 0.800742 0.868352
vt 0.800531 0.894168
vt 0.800953 0.894168
vt 0.805035 0.868352
vt 0.804824 0.894168
vt 0.805246 0.894168
vt 0.809327 0.868352
vt 0.809116 0.894168
vt 0.809538 0.894168
vt 0.813620 0.868352
vt 0.813408 0.894168
vt 0.813831 0.894168
vt 0.817912 0.868352
vt 0.817701 0.894168
vt 0.818123 0.894168
vt 0.821993 0.894168
vt 0.740648 0.765072
vt 0.744941 0.765072
vt 0.749233 0.765072
vt 0.753525 0.765072
vt 0.757818 0.765072
vt 0.762110 0.765072
vt 0.766403 0.765072
vt 0.770695 0.765072
vt 0.774987 0.765072
vt 0.779280 0.765072
vt 0.783572 0.765072
vt 0.787865 0.765072
vt 0.792157 0.765072
vt 0.796450 0.765072
vt 0.800742 0.765072
vt 0.805035 0.765072
vt 0.809327 0.765072
vt 0.813620 0.765072
vt 0.817912 0.765072
vt 0.822205 0.765072
vt 0.826497 0.765072
vt 0.941872 0.868225
vt 0.936159 0.879438
vt 0.903616 0.854186
vt 0.927260 0.888337
vt 0.916046 0.894051
vt 0.903616 0.896020
vt 0.891186 0.894051
vt 0.879972 0.888337
vt 0.871073 0.879438
vt 0.865360 0.868225
vt 0.863391 0.855795
vt 0.865360 0.843365
vt 0.871073 0.832151
vt 0.879973 0.823252
vt 0.891186 0.817539
vt 0.903616 0.815570
vt 0.916046 0.817539
vt 0.927260 0.823252
vt 0.936159 0.832151
vt 0.941872 0.843365
vt 0.943841 0.855795
vn 0.000000 0.000000 1.000000
vn 0.000000 0.000000 1.000000
vn 0.000000 0.000000 1.000000
vn 0.000000 0.000000 1.000000
vn 0.000000 0.000000 -1.000000
vn 0.000000 0.000000 -1.000000
vn 0.000000 0.000000 -1.000000
vn 0.000000 0.000000 -1.000000
vn 1.000000 0.000000 0.000000
vn 1.000000 0.000000 0.000000
vn 1.000000 0.000000 0.000000
vn 1.000000 0.000000 0.000000
vn -1.000000 0.000000 0.000000
vn -1.000000 0.000000 0.000000
vn -1.000000 0.000000 0.000000
vn -1.000000 0.000000 0.000000
vn 0.000000 1.000000 -0.000000
vn 0.000000 1.000000 -0.000000
vn 0.000000 1.000000 -0.000000
vn 0.000000 1.000000 -0.000000
vn 0.000000 1.000000 -0.000000
vn 0.000000 1.000000 -0.000000
vn 0.000000 1.000000 -0.000000
vn 0.000000 1.000000 -0.000000
vn 0.000000 -1.000000 0.000000
vn 0.000000 -1.000000 0.000000
vn 0.000000 -1.000000 0.000000
vn 0.000000 -1.000000 0.000000
vn 0.000000 -1.000000 0.000000
vn 0.000000 -1.000000 0.000000
vn 0.000000 -1.000000 0.000000
vn 0.000000 -1.000000 0.000000
vn -0.707107 0.000000 0.707107
vn -0.707107 0.000000 0.707107
vn -0.707107 0.000000 0.707107
vn -0.707107 0.000000 0.707107
vn 0.707107 0.000000 0.707107
vn 0.707107 0.000000 0.707107
vn 0.707107 0.000000 0.707107
vn 0.707107 0.000000 0.707107
vn -0.707107 0.000000 -0.707107
vn -0.707107 0.000000 -0.707107
vn -0.707107 0.000000 -0.707107
vn -0.707107 0.000000 -0.707107
vn 0.707107 0.000000 -0.707107
vn 0.707107 0.000000 -0.707107
vn 0.707107 0.000000 -0.707107
vn 0.707107 0.000000 -0.707107
vn 0.668318 0.711475 -0.217151
vn 0.668319 0.711475 -0.217148
vn 0.702713 0.711473 0.000001
vn 0.702713 0.711473 0.000000
vn 0.568506 0.711473 -0.413046
vn 0.568505 0.711473 -0.413046
vn 0.413047 0.711472 -0.568506
vn 0.413047 0.711472 -0.568507
vn 0.217152 0.711473 -0.668320
vn 0.217153 0.711473 -0.668319
vn -0.000000 0.711472 -0.702714
vn -0.000000 0.711472 -0.702714
vn -0.217152 0.711473 -0.668320
vn -0.217153 0.711473 -0.668319
vn -0.413047 0.711472 -0.568506
vn -0.413047 0.711472 -0.568506
vn -0.568505 0.711474 -0.413045
vn -0.568505 0.711474 -0.413045
vn -0.668317 0.711475 -0.217152
vn -0.668319 0.711475 -0.217148
vn -0.702713 0.711473 -0.000000
vn -0.702713 0.711473 -0.000000
vn -0.668321 0.711472 0.217150
vn -0.668321 0.711472 0.217151
vn -0.568509 0.711471 0.413045
vn -0.568509 0.711472 0.413045
vn -0.413046 0.711469 0.568511
vn -0.413046 0.711469 0.568512
vn -0.217153 0.711466 0.668327
vn -0.217152 0.711466 0.668328
vn 0.000000 0.711466 0.702720
vn 0.000000 0.711466 0.702720
vn 0.217153 0.711466 0.668327
vn 0.217152 0.711466 0.668327
vn 0.413046 0.711469 0.568511
vn 0.413046 0.711469 0.568512
vn 0.568509 0.711472 0.413044
vn 0.568509 0.711472 0.413045
vn 0.668321 0.711473 0.217150
vn 0.668321 0.711473 0.217151
vn 0.951057 0.000000 -0.309016
vn 0.809016 0.000000 -0.587787
vn 0.809016 0.000000 -0.587787
vn 0.951057 0.000000 -0.309016
vn 0.587785 0.000000 -0.809017
vn 0.587785 0.000000 -0.809017
vn 0.309017 0.000000 -0.951056
vn 0.309017 0.000000 -0.951056
vn 0.000000 0.000000 -1.000000
vn 0.000000 0.000000 -1.000000
vn -0.309017 0.000000 -0.951057
vn -0.309017 0.000000 -0.951057
vn -0.587786 0.000000 -0.809017
vn -0.587786 0.000000 -0.809017
vn -0.809016 0.000000 -0.587787
vn -0.809016 0.000000 -0.587787
vn -0.951057 0.000000 -0.309017
vn -0.951057 0.000000 -0.309017
vn -1.000000 0.000000 0.000000
vn -1.000000 0.000000 0.000000
vn -0.951057 0.000000 0.309017
vn -0.951057 0.000000 0.309017
vn -0.809019 0.000000 0.587782
vn -0.809019 0.000000 0.587782
vn -0.587782 0.000000 0.809020
vn -0.587782 0.000000 0.809020
vn -0.309017 0.000000 0.951056
vn -0.309017 0.000000 0.951056
vn -0.000000 0.000000 1.000000
vn -0.000000 0.000000 1.000000
vn 0.309017 0.000000 0.951057
vn 0.309017 0.000000 0.951057
vn 0.587781 0.000000 0.809020
vn 0.587781 0.000000 0.809020
vn 0.809019 0.000000 0.587782
vn 0.809019 0.000000 0.587782
vn 0.951057 0.000000 0.309017
vn 0.951057 0.000000 0.309017
vn 1.000000 0.000000 0.000001
vn 1.000000 0.000000 0.000001
vn 0.000000 1.000000 0.000000
vn 0.000000 1.000000 0.000000
vn 0.000000 1.000000 0.000000
vn 0.000000 1.000000 0.000000
vn 0.000000 1.000000 0.000000
vn 0.000000 1.000000 0.000000
vn 0.000000 1.000000 0.000000
vn 0.000000 1.000000 0.000000
vn 0.000000 1.000000 0.000000
vn 0.000000 1.000000 0.000000
vn 0.000000 1.000000 0.000000
vn 0.000000 1.000000 0.000000
vn 0.000000 1.000000 0.000000
vn 0.000000 1.000000 0.000000
vn 0.000000 1.000000 -0.000000
vn 0.000000 1.000000 -0.000000
vn 0.000000 1.000000 -0.000000
vn 0.000000 1.000000 0.000000
vn 0.000000 1.000000 -0.000000
vn 0.000000 1.000000 0.000000
vn 0.000000 1.000000 0.000000
s off
g pCube31
usemtl initialShadingGroup
f 4/9/1 2/19/2 6/10/3 8/22/4
f 12/14/5 10/23/6 13/15/7 16/26/8
f 7/16/9 5/21/10 15/17/11 14/18/12
f 9/11/13 11/12/14 1/13/15 3/20/16
f 3/1/17 4/9/18 8/22/19 7/2/20 14/25/21 13/15/22 10/23/23 9/3/24
f 11/24/25 12/14/26 16/26/27 15/4/28 5/5/29 6/6/30 2/7/31 1/8/32
f 1/13/33 2/19/34 4/9/35 3/20/36
f 6/10/37 5/21/38 7/16/39 8/22/40
f 9/3/41 10/23/42 12/14/43 11/24/44
f 13/15/45 14/25/46 15/4/47 16/26/48
s 1
f 38/27/49 39/28/50 77/29/51 76/30/52
f 39/31/50 38/32/49 40/33/53 41/34/54
f 41/35/54 40/33/53 42/36/55 43/37/56
f 43/38/56 42/36/55 44/39/57 45/40/58
f 45/41/58 44/39/57 46/42/59 47/43/60
f 47/44/60 46/42/59 48/45/61 49/46/62
f 49/47/62 48/45/61 50/48/63 51/49/64
f 51/50/64 50/48/63 52/51/65 53/52/66
f 53/53/66 52/51/65 54/54/67 55/55/68
f 55/56/68 54/54/67 56/57/69 57/58/70
f 57/59/70 56/57/69 58/60/71 59/61/72
f 59/62/72 58/60/71 60/63/73 61/64/74
f 61/65/74 60/63/73 62/66/75 63/67/76
f 63/68/76 62/66/75 64/69/77 65/70/78
f 65/71/78 64/69/77 66/72/79 67/73/80
f 67/74/80 66/72/79 68/75/81 69/76/82
f 69/77/82 68/75/81 70/78/83 71/79/84
f 71/80/84 70/78/83 72/81/85 73/82/86
f 73/83/86 72/81/85 74/84/87 75/85/88
f 75/86/88 74/84/87 76/30/52 77/87/51
s 2
f 17/88/89 18/89/90 40/33/91 38/32/92
f 18/89/90 19/90/93 42/36/94 40/33/91
f 19/90/93 20/91/95 44/39/96 42/36/94
f 20/91/95 21/92/97 46/42/98 44/39/96
f 21/92/97 22/93/99 48/45/100 46/42/98
f 22/93/99 23/94/101 50/48/102 48/45/100
f 23/94/101 24/95/103 52/51/104 50/48/102
f 24/95/103 25/96/105 54/54/106 52/51/104
f 25/96/105 26/97/107 56/57/108 54/54/106
f 26/97/107 27/98/109 58/60/110 56/57/108
f 27/98/109 28/99/111 60/63/112 58/60/110
f 28/99/111 29/100/113 62/66/114 60/63/112
f 29/100/113 30/101/115 64/69/116 62/66/114
f 30/101/115 31/102/117 66/72/118 64/69/116
f 31/102/117 32/103/119 68/75/120 66/72/118
f 32/103/119 33/104/121 70/78/122 68/75/120
f 33/104/121 34/105/123 72/81/124 70/78/122
f 34/105/123 35/106/125 74/84/126 72/81/124
f 35/106/125 36/107/127 76/30/128 74/84/126
f 36/107/127 17/108/89 38/27/92 76/30/128
s 3
f 39/109/129 41/110/130 37/111/131
f 41/110/130 43/112/132 37/111/131
f 43/112/132 45/113/133 37/111/131
f 45/113/133 47/114/134 37/111/131
f 47/114/134 49/115/135 37/111/131
f 49/115/135 51/116/136 37/111/131
f 51/116/136 53/117/137 37/111/131
f 53/117/137 55/118/138 37/111/131
f 55/118/138 57/119/139 37/111/131
f 57/119/139 59/120/140 37/111/131
f 59/120/140 61/121/141 37/111/131
f 61/121/141 63/122/142 37/111/131
f 63/122/142 65/123/143 37/111/131
f 65/123/143 67/124/144 37/111/131
f 67/124/144 69/125/145 37/111/131
f 69/125/145 71/126/146 37/111/131
f 71/126/146 73/127/147 37/111/131
f 73/127/147 75/128/148 37/111/131
f 75/128/148 77/129/149 37/111/131
f 77/129/149 39/109/129 37/111/131
