# This file uses centimeters as units for non-parametric coordinates.

mtllib LadderObj.mtl
g default
v 0.839509 0.006104 5.298290
v 0.992000 0.006104 5.298290
v 0.839509 3.364975 5.298290
v 0.992000 3.364975 5.298290
v 0.839509 3.364975 5.145798
v 0.992000 3.364975 5.145798
v 0.839509 0.006104 5.145798
v 0.992000 0.006104 5.145798
v -0.001226 0.006104 5.298290
v 0.151266 0.006104 5.298290
v -0.001226 3.364975 5.298290
v 0.151266 3.364975 5.298290
v -0.001226 3.364975 5.145798
v 0.151266 3.364975 5.145798
v -0.001226 0.006104 5.145798
v 0.151266 0.006104 5.145798
v -0.107396 2.878805 5.355628
v 1.124080 2.878805 5.355628
v -0.107396 3.040127 5.355628
v 1.124080 3.040127 5.355628
v -0.107396 3.040127 5.310103
v 1.124080 3.040127 5.310103
v -0.107396 2.878805 5.310103
v 1.124080 2.878805 5.310103
v -0.107396 2.421498 5.355628
v 1.124080 2.421498 5.355628
v -0.107396 2.582819 5.355628
v 1.124080 2.582819 5.355628
v -0.107396 2.582819 5.310103
v 1.124080 2.582819 5.310103
v -0.107396 2.421498 5.310103
v 1.124080 2.421498 5.310103
v -0.107396 1.923360 5.355628
v 1.124080 1.923360 5.355628
v -0.107396 2.084682 5.355628
v 1.124080 2.084682 5.355628
v -0.107396 2.084682 5.310103
v 1.124080 2.084682 5.310103
v -0.107396 1.923360 5.310103
v 1.124080 1.923360 5.310103
v -0.107396 0.910752 5.355628
v 1.124080 0.910752 5.355628
v -0.107396 1.072073 5.355628
v 1.124080 1.072073 5.355628
v -0.107396 1.072073 5.310103
v 1.124080 1.072073 5.310103
v -0.107396 0.910752 5.310103
v 1.124080 0.910752 5.310103
v -0.107396 1.417056 5.355628
v 1.124080 1.417056 5.355628
v -0.107396 1.578377 5.355628
v 1.124080 1.578377 5.355628
v -0.107396 1.578377 5.310103
v 1.124080 1.578377 5.310103
v -0.107396 1.417056 5.310103
v 1.124080 1.417056 5.310103
v -0.107396 0.428946 5.355628
v 1.124080 0.428946 5.355628
v -0.107396 0.590268 5.355628
v 1.124080 0.590268 5.355628
v -0.107396 0.590268 5.310103
v 1.124080 0.590268 5.310103
v -0.107396 0.428946 5.310103
v 1.124080 0.428946 5.310103
vt 0.103532 0.001991
vt 0.146587 0.001991
vt 0.146587 0.950327
vt 0.103532 0.950327
vt 0.154205 0.001991
vt 0.197259 0.001991
vt 0.197259 0.950327
vt 0.154205 0.950327
vt 0.306224 0.001991
vt 0.349278 0.001991
vt 0.349278 0.950327
vt 0.306224 0.950327
vt 0.356896 0.001991
vt 0.399950 0.001991
vt 0.399950 0.950327
vt 0.356896 0.950327
vt 0.702469 0.353674
vt 0.715323 0.353674
vt 0.715323 0.399221
vt 0.702469 0.399221
vt 0.683480 0.353674
vt 0.696334 0.353674
vt 0.696334 0.399221
vt 0.683480 0.399221
vt 0.664491 0.353674
vt 0.677345 0.353674
vt 0.677345 0.399221
vt 0.664491 0.399221
vt 0.645503 0.353674
vt 0.658356 0.353674
vt 0.658356 0.399221
vt 0.645503 0.399221
vt 0.626514 0.353674
vt 0.639367 0.353674
vt 0.639367 0.399221
vt 0.626514 0.399221
vt 0.607525 0.353674
vt 0.620378 0.353674
vt 0.620378 0.399222
vt 0.607525 0.399222
vt 0.588536 0.353675
vt 0.601390 0.353675
vt 0.601390 0.399222
vt 0.588536 0.399222
vt 0.569547 0.353674
vt 0.582401 0.353674
vt 0.582401 0.399221
vt 0.569547 0.399221
vt 0.550558 0.353674
vt 0.563412 0.353674
vt 0.563412 0.399221
vt 0.550558 0.399221
vt 0.531569 0.353674
vt 0.544423 0.353674
vt 0.544423 0.399222
vt 0.531569 0.399222
vt 0.512581 0.353674
vt 0.525434 0.353674
vt 0.525434 0.399221
vt 0.512581 0.399221
vt 0.493592 0.353674
vt 0.506445 0.353674
vt 0.506445 0.399221
vt 0.493592 0.399221
vt 0.444402 0.353675
vt 0.487457 0.353675
vt 0.487457 0.396729
vt 0.444402 0.396729
vt 0.395213 0.954318
vt 0.438267 0.954318
vt 0.438267 0.997372
vt 0.395213 0.997372
vt 0.346024 0.954318
vt 0.389078 0.954318
vt 0.389078 0.997372
vt 0.346024 0.997372
vt 0.296834 0.954318
vt 0.339888 0.954318
vt 0.339888 0.997372
vt 0.296834 0.997372
vt 0.460191 0.349683
vt 0.460191 0.001991
vt 0.473044 0.001991
vt 0.473044 0.349683
vt 0.532302 0.349683
vt 0.532302 0.001991
vt 0.545156 0.001991
vt 0.545156 0.349683
vt 0.604413 0.349683
vt 0.604413 0.001991
vt 0.617267 0.001991
vt 0.617267 0.349683
vt 0.676524 0.349683
vt 0.676524 0.001991
vt 0.689378 0.001991
vt 0.689378 0.349683
vt 0.748636 0.349683
vt 0.748636 0.001991
vt 0.761489 0.001991
vt 0.761489 0.349683
vt 0.820747 0.349683
vt 0.820747 0.001991
vt 0.833601 0.001991
vt 0.833601 0.349683
vt 0.892858 0.349683
vt 0.892858 0.001991
vt 0.905712 0.001991
vt 0.905712 0.349683
vt 0.964969 0.349683
vt 0.964969 0.001991
vt 0.977823 0.001991
vt 0.977823 0.349683
vt 0.933472 0.701367
vt 0.933472 0.353675
vt 0.946326 0.353675
vt 0.946326 0.701367
vt 0.862801 0.701367
vt 0.862801 0.353675
vt 0.875654 0.353675
vt 0.875654 0.701367
vt 0.792129 0.701367
vt 0.792129 0.353674
vt 0.804983 0.353674
vt 0.804983 0.701367
vt 0.721458 0.701367
vt 0.721458 0.353674
vt 0.734312 0.353674
vt 0.734312 0.701367
vt 0.001992 0.001991
vt 0.045046 0.001991
vt 0.045046 0.950327
vt 0.001992 0.950327
vt 0.052860 0.001991
vt 0.095914 0.001991
vt 0.095914 0.950327
vt 0.052860 0.950327
vt 0.204878 0.001991
vt 0.247932 0.001991
vt 0.247932 0.950327
vt 0.204878 0.950327
vt 0.255551 0.001991
vt 0.298605 0.001991
vt 0.298605 0.950327
vt 0.255551 0.950327
vt 0.407569 0.349683
vt 0.407569 0.001991
vt 0.453116 0.001991
vt 0.453116 0.349683
vt 0.479680 0.349683
vt 0.479680 0.001991
vt 0.525227 0.001991
vt 0.525227 0.349683
vt 0.551791 0.349683
vt 0.551791 0.001991
vt 0.597339 0.001991
vt 0.597339 0.349683
vt 0.623903 0.349683
vt 0.623903 0.001991
vt 0.669450 0.001991
vt 0.669450 0.349683
vt 0.696014 0.349683
vt 0.696014 0.001991
vt 0.741561 0.001991
vt 0.741561 0.349683
vt 0.768125 0.349683
vt 0.768125 0.001991
vt 0.813672 0.001991
vt 0.813672 0.349683
vt 0.840236 0.349683
vt 0.840236 0.001991
vt 0.885783 0.001991
vt 0.885783 0.349683
vt 0.912348 0.349683
vt 0.912348 0.001991
vt 0.957895 0.001991
vt 0.957895 0.349683
vt 0.952461 0.701367
vt 0.952461 0.353675
vt 0.998008 0.353675
vt 0.998008 0.701367
vt 0.881790 0.701367
vt 0.881790 0.353675
vt 0.927337 0.353675
vt 0.927337 0.701367
vt 0.811118 0.701367
vt 0.811118 0.353675
vt 0.856665 0.353675
vt 0.856665 0.701367
vt 0.740447 0.701367
vt 0.740447 0.353675
vt 0.785994 0.353675
vt 0.785994 0.701367
vn 0.000000 0.000000 1.000000
vn 0.000000 0.000000 1.000000
vn 0.000000 0.000000 1.000000
vn 0.000000 0.000000 1.000000
vn 0.000000 1.000000 0.000000
vn 0.000000 1.000000 0.000000
vn 0.000000 1.000000 0.000000
vn 0.000000 1.000000 0.000000
vn 0.000000 0.000000 -1.000000
vn 0.000000 0.000000 -1.000000
vn 0.000000 0.000000 -1.000000
vn 0.000000 0.000000 -1.000000
vn 0.000000 -1.000000 0.000000
vn 0.000000 -1.000000 0.000000
vn 0.000000 -1.000000 0.000000
vn 0.000000 -1.000000 0.000000
vn 1.000000 0.000000 0.000000
vn 1.000000 0.000000 0.000000
vn 1.000000 0.000000 0.000000
vn 1.000000 0.000000 0.000000
vn -1.000000 0.000000 0.000000
vn -1.000000 0.000000 0.000000
vn -1.000000 0.000000 0.000000
vn -1.000000 0.000000 0.000000
vn 0.000000 0.000000 1.000000
vn 0.000000 0.000000 1.000000
vn 0.000000 0.000000 1.000000
vn 0.000000 0.000000 1.000000
vn 0.000000 1.000000 0.000000
vn 0.000000 1.000000 0.000000
vn 0.000000 1.000000 0.000000
vn 0.000000 1.000000 0.000000
vn 0.000000 0.000000 -1.000000
vn 0.000000 0.000000 -1.000000
vn 0.000000 0.000000 -1.000000
vn 0.000000 0.000000 -1.000000
vn 0.000000 -1.000000 0.000000
vn 0.000000 -1.000000 0.000000
vn 0.000000 -1.000000 0.000000
vn 0.000000 -1.000000 0.000000
vn 1.000000 0.000000 0.000000
vn 1.000000 0.000000 0.000000
vn 1.000000 0.000000 0.000000
vn 1.000000 0.000000 0.000000
vn -1.000000 0.000000 0.000000
vn -1.000000 0.000000 0.000000
vn -1.000000 0.000000 0.000000
vn -1.000000 0.000000 0.000000
vn 0.000000 0.000000 1.000000
vn 0.000000 0.000000 1.000000
vn 0.000000 0.000000 1.000000
vn 0.000000 0.000000 1.000000
vn 0.000000 1.000000 0.000000
vn 0.000000 1.000000 0.000000
vn 0.000000 1.000000 0.000000
vn 0.000000 1.000000 0.000000
vn 0.000000 0.000000 -1.000000
vn 0.000000 0.000000 -1.000000
vn 0.000000 0.000000 -1.000000
vn 0.000000 0.000000 -1.000000
vn 0.000000 -1.000000 0.000000
vn 0.000000 -1.000000 0.000000
vn 0.000000 -1.000000 0.000000
vn 0.000000 -1.000000 0.000000
vn 1.000000 0.000000 0.000000
vn 1.000000 0.000000 0.000000
vn 1.000000 0.000000 0.000000
vn 1.000000 0.000000 0.000000
vn -1.000000 0.000000 0.000000
vn -1.000000 0.000000 0.000000
vn -1.000000 0.000000 0.000000
vn -1.000000 0.000000 0.000000
vn 0.000000 0.000000 1.000000
vn 0.000000 0.000000 1.000000
vn 0.000000 0.000000 1.000000
vn 0.000000 0.000000 1.000000
vn 0.000000 1.000000 0.000000
vn 0.000000 1.000000 0.000000
vn 0.000000 1.000000 0.000000
vn 0.000000 1.000000 0.000000
vn 0.000000 0.000000 -1.000000
vn 0.000000 0.000000 -1.000000
vn 0.000000 0.000000 -1.000000
vn 0.000000 0.000000 -1.000000
vn 0.000000 -1.000000 0.000000
vn 0.000000 -1.000000 0.000000
vn 0.000000 -1.000000 0.000000
vn 0.000000 -1.000000 0.000000
vn 1.000000 0.000000 0.000000
vn 1.000000 0.000000 0.000000
vn 1.000000 0.000000 0.000000
vn 1.000000 0.000000 0.000000
vn -1.000000 0.000000 0.000000
vn -1.000000 0.000000 0.000000
vn -1.000000 0.000000 0.000000
vn -1.000000 0.000000 0.000000
vn 0.000000 0.000000 1.000000
vn 0.000000 0.000000 1.000000
vn 0.000000 0.000000 1.000000
vn 0.000000 0.000000 1.000000
vn 0.000000 1.000000 0.000000
vn 0.000000 1.000000 0.000000
vn 0.000000 1.000000 0.000000
vn 0.000000 1.000000 0.000000
vn 0.000000 0.000000 -1.000000
vn 0.000000 0.000000 -1.000000
vn 0.000000 0.000000 -1.000000
vn 0.000000 0.000000 -1.000000
vn 0.000000 -1.000000 0.000000
vn 0.000000 -1.000000 0.000000
vn 0.000000 -1.000000 0.000000
vn 0.000000 -1.000000 0.000000
vn 1.000000 0.000000 0.000000
vn 1.000000 0.000000 0.000000
vn 1.000000 0.000000 0.000000
vn 1.000000 0.000000 0.000000
vn -1.000000 0.000000 0.000000
vn -1.000000 0.000000 0.000000
vn -1.000000 0.000000 0.000000
vn -1.000000 0.000000 0.000000
vn 0.000000 0.000000 1.000000
vn 0.000000 0.000000 1.000000
vn 0.000000 0.000000 1.000000
vn 0.000000 0.000000 1.000000
vn 0.000000 1.000000 0.000000
vn 0.000000 1.000000 0.000000
vn 0.000000 1.000000 0.000000
vn 0.000000 1.000000 0.000000
vn 0.000000 0.000000 -1.000000
vn 0.000000 0.000000 -1.000000
vn 0.000000 0.000000 -1.000000
vn 0.000000 0.000000 -1.000000
vn 0.000000 -1.000000 0.000000
vn 0.000000 -1.000000 0.000000
vn 0.000000 -1.000000 0.000000
vn 0.000000 -1.000000 0.000000
vn 1.000000 0.000000 0.000000
vn 1.000000 0.000000 0.000000
vn 1.000000 0.000000 0.000000
vn 1.000000 0.000000 0.000000
vn -1.000000 0.000000 0.000000
vn -1.000000 0.000000 0.000000
vn -1.000000 0.000000 0.000000
vn -1.000000 0.000000 0.000000
vn 0.000000 0.000000 1.000000
vn 0.000000 0.000000 1.000000
vn 0.000000 0.000000 1.000000
vn 0.000000 0.000000 1.000000
vn 0.000000 1.000000 0.000000
vn 0.000000 1.000000 0.000000
vn 0.000000 1.000000 0.000000
vn 0.000000 1.000000 0.000000
vn 0.000000 0.000000 -1.000000
vn 0.000000 0.000000 -1.000000
vn 0.000000 0.000000 -1.000000
vn 0.000000 0.000000 -1.000000
vn 0.000000 -1.000000 0.000000
vn 0.000000 -1.000000 0.000000
vn 0.000000 -1.000000 0.000000
vn 0.000000 -1.000000 0.000000
vn 1.000000 0.000000 0.000000
vn 1.000000 0.000000 0.000000
vn 1.000000 0.000000 0.000000
vn 1.000000 0.000000 0.000000
vn -1.000000 0.000000 0.000000
vn -1.000000 0.000000 0.000000
vn -1.000000 0.000000 0.000000
vn -1.000000 0.000000 0.000000
vn 0.000000 0.000000 1.000000
vn 0.000000 0.000000 1.000000
vn 0.000000 0.000000 1.000000
vn 0.000000 0.000000 1.000000
vn 0.000000 1.000000 0.000000
vn 0.000000 1.000000 0.000000
vn 0.000000 1.000000 0.000000
vn 0.000000 1.000000 0.000000
vn 0.000000 0.000000 -1.000000
vn 0.000000 0.000000 -1.000000
vn 0.000000 0.000000 -1.000000
vn 0.000000 0.000000 -1.000000
vn 0.000000 -1.000000 0.000000
vn 0.000000 -1.000000 0.000000
vn 0.000000 -1.000000 0.000000
vn 0.000000 -1.000000 0.000000
vn 1.000000 0.000000 0.000000
vn 1.000000 0.000000 0.000000
vn 1.000000 0.000000 0.000000
vn 1.000000 0.000000 0.000000
vn -1.000000 0.000000 0.000000
vn -1.000000 0.000000 0.000000
vn -1.000000 0.000000 0.000000
vn -1.000000 0.000000 0.000000
s off
g pCube40
usemtl initialShadingGroup
f 1/129/1 2/130/2 4/131/3 3/132/4
f 3/65/5 4/66/6 6/67/7 5/68/8
f 5/133/9 6/134/10 8/135/11 7/136/12
f 7/69/13 8/70/14 2/71/15 1/72/16
f 2/1/17 8/2/18 6/3/19 4/4/20
f 7/5/21 1/6/22 3/7/23 5/8/24
f 9/137/25 10/138/26 12/139/27 11/140/28
f 11/73/29 12/74/30 14/75/31 13/76/32
f 13/141/33 14/142/34 16/143/35 15/144/36
f 15/77/37 16/78/38 10/79/39 9/80/40
f 10/9/41 16/10/42 14/11/43 12/12/44
f 15/13/45 9/14/46 11/15/47 13/16/48
f 17/145/49 18/146/50 20/147/51 19/148/52
f 19/81/53 20/82/54 22/83/55 21/84/56
f 21/149/57 22/150/58 24/151/59 23/152/60
f 23/85/61 24/86/62 18/87/63 17/88/64
f 18/17/65 24/18/66 22/19/67 20/20/68
f 23/21/69 17/22/70 19/23/71 21/24/72
f 25/153/73 26/154/74 28/155/75 27/156/76
f 27/89/77 28/90/78 30/91/79 29/92/80
f 29/157/81 30/158/82 32/159/83 31/160/84
f 31/93/85 32/94/86 26/95/87 25/96/88
f 26/25/89 32/26/90 30/27/91 28/28/92
f 31/29/93 25/30/94 27/31/95 29/32/96
f 33/161/97 34/162/98 36/163/99 35/164/100
f 35/97/101 36/98/102 38/99/103 37/100/104
f 37/165/105 38/166/106 40/167/107 39/168/108
f 39/101/109 40/102/110 34/103/111 33/104/112
f 34/33/113 40/34/114 38/35/115 36/36/116
f 39/37/117 33/38/118 35/39/119 37/40/120
f 41/169/121 42/170/122 44/171/123 43/172/124
f 43/105/125 44/106/126 46/107/127 45/108/128
f 45/173/129 46/174/130 48/175/131 47/176/132
f 47/109/133 48/110/134 42/111/135 41/112/136
f 42/41/137 48/42/138 46/43/139 44/44/140
f 47/45/141 41/46/142 43/47/143 45/48/144
f 49/177/145 50/178/146 52/179/147 51/180/148
f 51/113/149 52/114/150 54/115/151 53/116/152
f 53/181/153 54/182/154 56/183/155 55/184/156
f 55/117/157 56/118/158 50/119/159 49/120/160
f 50/49/161 56/50/162 54/51/163 52/52/164
f 55/53/165 49/54/166 51/55/167 53/56/168
f 57/185/169 58/186/170 60/187/171 59/188/172
f 59/121/173 60/122/174 62/123/175 61/124/176
f 61/189/177 62/190/178 64/191/179 63/192/180
f 63/125/181 64/126/182 58/127/183 57/128/184
f 58/57/185 64/58/186 62/59/187 60/60/188
f 63/61/189 57/62/190 59/63/191 61/64/192
